<svg width="141" height="141" viewBox="0 0 141 141" fill="none" xmlns="http://www.w3.org/2000/svg">
<path d="M63.4584 98.6666H77.5417V69.0916L88.8084 80.3582L98.6667 70.4999L70.5 42.3333L42.3334 70.4999L52.1917 80.3582L63.4584 69.0916V98.6666ZM70.5 140.917C60.7591 140.917 51.6049 139.067 43.0375 135.368C34.4702 131.673 27.0177 126.657 20.6803 120.32C14.3428 113.982 9.32674 106.53 5.63221 97.9624C1.93299 89.3951 0.083374 80.2409 0.083374 70.4999C0.083374 60.7589 1.93299 51.6048 5.63221 43.0374C9.32674 34.4701 14.3428 27.0176 20.6803 20.6801C27.0177 14.3426 34.4702 9.32427 43.0375 5.62504C51.6049 1.93052 60.7591 0.083252 70.5 0.083252C80.241 0.083252 89.3952 1.93052 97.9625 5.62504C106.53 9.32427 113.982 14.3426 120.32 20.6801C126.657 27.0176 131.673 34.4701 135.368 43.0374C139.067 51.6048 140.917 60.7589 140.917 70.4999C140.917 80.2409 139.067 89.3951 135.368 97.9624C131.673 106.53 126.657 113.982 120.32 120.32C113.982 126.657 106.53 131.673 97.9625 135.368C89.3952 139.067 80.241 140.917 70.5 140.917Z" fill="#375DE1"/>
</svg>
