<svg width="90" height="24" viewBox="0 0 90 24" fill="none" xmlns="http://www.w3.org/2000/svg">
<path d="M8.68837 2.23722H10.6593C11.8597 2.05705 13.0855 2.21545 14.2036 2.69523C15.6065 3.55516 16.624 4.93956 17.0391 6.55311C17.333 7.39867 17.333 7.39867 18.0419 7.0992H18.5951V0.405165H0.043742V1.58543H0.804469C1.13505 1.5831 1.46194 1.65626 1.76113 1.79953C2.06032 1.94281 2.3242 2.15256 2.5334 2.41338C3.24226 3.57602 3.36328 4.8796 3.36328 11.6617C3.36328 18.8666 3.20768 20.6282 2.5334 21.5266C2.36693 21.7576 2.15142 21.9472 1.90294 22.0814C1.65445 22.2157 1.37943 22.291 1.09839 22.3017C0.0437421 22.4955 0.043742 22.4779 0.043742 22.9535C-0.0145807 23.1125 -0.0145807 23.2877 0.043742 23.4467H11.7486C11.826 23.2911 11.8664 23.1191 11.8664 22.9447C11.8664 22.7702 11.826 22.5982 11.7486 22.4426C11.4651 22.3623 11.1761 22.3034 10.8841 22.2665C10.5682 22.2282 10.2559 22.1634 9.95049 22.0727C9.5131 21.7473 9.1666 21.3113 8.94525 20.8077C8.7239 20.3042 8.63536 19.7504 8.68837 19.2013C8.51548 18.0387 8.42903 15.9071 8.42903 14.1455V12.7539H9.1206C9.98222 12.727 10.8433 12.8219 11.6794 13.0357C12.08 13.2879 12.4209 13.6271 12.6779 14.0291C12.9349 14.431 13.1017 14.8858 13.1663 15.361L13.3219 15.9071H14.3765V8.1033H13.4083L13.2527 8.86079C13.1873 9.34675 13.0108 9.81029 12.7376 10.2141C12.4643 10.618 12.1019 10.9509 11.6794 11.1861C11.2703 11.3101 10.8392 11.3402 10.4173 11.2742H8.42903V9.37165C8.42903 7.39867 8.53277 3.24132 8.60192 2.58953L8.68837 2.23722ZM89.6021 16.2066C88.7849 14.8664 87.5102 13.8814 86.0232 13.4409C84.8833 13.0779 83.8295 12.478 82.9284 11.6793C82.7257 11.4795 82.574 11.2322 82.4866 10.9589C82.3992 10.6856 82.3788 10.3947 82.4271 10.1115C82.4284 9.55606 82.646 9.02386 83.0322 8.63178C83.2939 8.3525 83.6252 8.15089 83.9906 8.0485C84.356 7.94612 84.7418 7.94679 85.1069 8.05046C85.8627 8.26993 86.5462 8.69363 87.0849 9.27665C87.6237 9.85968 87.9976 10.5803 88.1671 11.3622C88.4437 12.155 88.4783 12.155 88.9797 11.9436L89.2909 11.8203V7.4339L89.0661 7.32821C87.364 6.7191 85.5585 6.46742 83.7583 6.58834C82.2081 6.62836 80.7284 7.25656 79.6089 8.34993C79.1012 8.83417 78.7035 9.42563 78.4437 10.0829C78.1839 10.7402 78.0682 11.4474 78.1048 12.155C78.1145 13.2368 78.5359 14.2725 79.2804 15.044C80.1031 15.8684 81.1126 16.4734 82.2196 16.8055C84.8994 17.8801 85.6774 18.5671 85.6774 19.8179C85.6889 20.3453 85.524 20.861 85.2099 21.2804C84.8957 21.6997 84.4509 21.9978 83.9485 22.1255C83.3448 22.2607 82.7195 22.2607 82.1159 22.1255C81.3255 21.813 80.6197 21.3126 80.0574 20.6661C79.495 20.0196 79.0923 19.2456 78.8828 18.4086L78.658 17.8449H78.3468C78.1981 17.8561 78.0521 17.8918 77.9146 17.9506H77.7417V22.9535H78.0356C79.2036 23.3494 80.4088 23.621 81.6318 23.7638H83.3607C84.1105 23.8199 84.8642 23.7484 85.591 23.5524C86.5137 23.3789 87.3758 22.9625 88.0916 22.3444C88.8074 21.7263 89.352 20.9282 89.6713 20.0293C89.8776 19.5272 89.9834 18.9881 89.9825 18.4438C90.0506 17.677 89.9194 16.9054 89.6021 16.2066ZM73.3156 7.0992C72.2796 6.656 71.1633 6.44101 70.04 6.46833C68.9166 6.49566 67.8117 6.76468 66.7976 7.25774C65.8444 7.73281 64.9995 8.40626 64.3175 9.23461C63.6356 10.063 63.1317 11.0278 62.8383 12.0669C62.4644 13.2004 62.3059 14.3961 62.3715 15.5901C62.3591 16.2397 62.4113 16.8889 62.5271 17.5278C62.8063 19.0988 63.5507 20.5451 64.6602 21.6724C65.7698 22.7998 67.1913 23.5542 68.734 23.8343C69.7385 23.9632 70.755 23.9632 71.7596 23.8343C72.802 23.6471 73.7997 23.2584 74.6988 22.6893C75.4425 22.2645 76.0719 21.6594 76.5314 20.9277C76.5019 20.8128 76.45 20.7053 76.3787 20.6115C76.3074 20.5176 76.2182 20.4394 76.1165 20.3816C75.9192 20.4544 75.7329 20.5552 75.5632 20.681C74.7033 21.2585 73.6878 21.5479 72.6586 21.509C71.9755 21.556 71.2907 21.4477 70.6537 21.1917C70.0168 20.9358 69.4437 20.5387 68.976 20.0293C68.6142 19.6868 68.3156 19.2811 68.0943 18.8314C67.557 17.7362 67.2675 16.5323 67.2471 15.3082V14.6212H76.8253V14.2689C76.8465 13.9169 76.8465 13.5639 76.8253 13.2119C76.8219 11.9681 76.4954 10.7473 75.8789 9.67366C75.2625 8.60003 74.3781 7.71179 73.3156 7.0992ZM68.4919 13.1943H67.2817V12.155C67.6793 9.49496 68.6648 7.90953 69.8751 7.90953C71.0853 7.90953 71.604 9.47734 71.8287 12.3487V13.1591H70.7914L68.4919 13.1943ZM43.63 6.51787C43.0326 6.49427 42.4387 6.62134 41.901 6.88781C40.7325 7.46601 39.7887 8.42767 39.2212 9.61827L38.9964 10.0411V6.51787H38.91C38.7025 6.51787 32.3055 7.82145 32.098 7.90953C31.8906 7.99761 31.9597 8.01522 31.9597 8.33231C31.9597 8.6494 31.9597 8.70224 32.098 8.71986L32.7723 8.86079C32.9612 8.86551 33.1465 8.91396 33.3142 9.00247C33.482 9.09098 33.6277 9.21723 33.7405 9.37165C34.1727 9.95297 34.2592 10.9747 34.2592 15.3258C34.3446 17.2846 34.2636 19.2473 34.0171 21.1919C33.9591 21.4851 33.8132 21.7528 33.5995 21.9579C33.3858 22.163 33.1149 22.2954 32.8242 22.3369L32.2363 22.4602H32.0116V22.9535C31.9489 23.1178 31.9489 23.3001 32.0116 23.4643H41.6763V22.9535C41.7098 22.7849 41.7098 22.6112 41.6763 22.4426C41.0944 22.4195 40.5157 22.3429 39.9474 22.2136C39.6378 22.0487 39.3846 21.7921 39.2211 21.4776C39.0575 21.1632 38.9912 20.8056 39.031 20.452C38.8927 19.4303 38.8236 16.4356 38.8581 14.1455C38.8927 11.8555 38.8581 11.7146 39.0483 11.556C39.6269 11.1041 40.3428 10.8734 41.0712 10.9042C41.7577 10.9195 42.4319 11.0942 43.0421 11.4151C43.2537 11.5348 43.4807 11.6237 43.7164 11.6793C43.7164 11.6793 45.4453 7.41629 45.4453 7.22251C45.2241 6.96055 44.9422 6.75894 44.6252 6.6359C44.3083 6.51287 43.9662 6.4723 43.63 6.51787ZM31.977 13.9165C31.9167 12.6577 31.562 11.4318 30.9424 10.341C30.3229 9.2501 29.4565 8.32588 28.4154 7.64529C27.1782 6.96523 25.8017 6.59025 24.3965 6.55048C22.9912 6.51071 21.5964 6.80725 20.324 7.41628C18.5251 8.38283 17.1668 10.0259 16.5377 11.9964C15.8879 14.2026 15.8879 16.5547 16.5377 18.7609C16.8783 19.9667 17.515 21.064 18.3876 21.9494C19.4744 23.0299 20.8758 23.7221 22.3815 23.9224C23.348 24.0047 24.3195 24.0047 25.2861 23.9224C25.6417 23.8672 25.9939 23.7908 26.3407 23.6934C27.748 23.2923 29.0141 22.4911 29.9908 21.3836C30.9675 20.2761 31.6145 18.9082 31.856 17.4397C32.0286 16.2739 32.0692 15.0918 31.977 13.9165ZM24.7847 22.7245C23.0557 23.253 21.7591 21.5442 21.3268 17.9506C21.1681 16.0691 21.1681 14.1773 21.3268 12.2959C21.6726 9.40688 22.5544 7.94476 23.9202 7.94476C24.1958 7.92736 24.4714 7.97745 24.7241 8.09085C24.9768 8.20425 25.1991 8.37765 25.3725 8.59655C26.5309 9.77681 27.1014 12.1197 27.1014 15.6429C27.2453 17.6368 26.9377 19.6378 26.2024 21.4914C25.8777 22.032 25.3754 22.4377 24.7847 22.6364V22.7245ZM55.9053 6.87019C55.4175 6.80623 54.9236 6.80623 54.4358 6.87019C53.4993 6.86938 52.5736 7.07364 51.7213 7.46913L51.1854 7.69814V3.87549C51.279 2.58542 51.279 1.29007 51.1854 0C50.9779 0 44.3734 1.28596 44.2697 1.33881C44.2187 1.46887 44.2187 1.61391 44.2697 1.74397C44.2697 2.11391 44.2697 2.09629 45.0477 2.27245C45.2661 2.32236 45.476 2.4055 45.6701 2.51907C46.0076 2.84243 46.2322 3.26922 46.3098 3.73457C46.5067 5.07517 46.5704 6.43259 46.5 7.78622V23.253L46.9668 23.3587C47.6584 23.5172 49.6121 23.8519 50.2518 23.9224C51.5291 24.0259 52.8126 24.0259 54.09 23.9224C55.5078 23.7748 56.8593 23.2358 57.9987 22.3636C59.1381 21.4913 60.0224 20.3188 60.5561 18.9723C60.8744 18.1081 61.0948 17.2098 61.2131 16.2947C61.3161 15.0552 61.2754 13.8076 61.0921 12.5777C60.9066 11.1991 60.3095 9.91205 59.3816 8.89104C58.4538 7.87002 57.2401 7.16451 55.9053 6.87019ZM51.3756 22.425C51.3756 22.196 51.2027 14.4803 51.2372 11.3975V8.9841L51.7386 8.86079C52.0769 8.8114 52.4204 8.8114 52.7587 8.86079C53.1328 8.82203 53.5092 8.90861 53.8306 9.10741C54.4763 9.56144 55.0125 10.1588 55.3988 10.8545C55.7851 11.5502 56.0115 12.3261 56.0609 13.1238C56.1869 14.4066 56.1869 15.6989 56.0609 16.9817C55.9575 18.8461 55.2524 20.6234 54.0554 22.0375C53.7156 22.3663 53.289 22.5867 52.8279 22.6716C52.4789 22.7335 52.1221 22.7335 51.7732 22.6716C51.4447 22.6716 51.4447 22.5659 51.4447 22.425H51.3756Z" fill="#101D49"/>
</svg>
