<svg width="340" height="340" viewBox="0 0 340 340" fill="none" xmlns="http://www.w3.org/2000/svg">
<g opacity="0.3">
<path d="M193.906 116.875H146.094C140.217 116.875 135.469 121.623 135.469 127.5V308.125C135.469 314.002 140.217 318.75 146.094 318.75H193.906C199.783 318.75 204.531 314.002 204.531 308.125V127.5C204.531 121.623 199.783 116.875 193.906 116.875ZM296.172 21.25H248.359C242.482 21.25 237.734 25.998 237.734 31.875V308.125C237.734 314.002 242.482 318.75 248.359 318.75H296.172C302.049 318.75 306.797 314.002 306.797 308.125V31.875C306.797 25.998 302.049 21.25 296.172 21.25ZM91.6406 212.5H43.8281C37.9512 212.5 33.2031 217.248 33.2031 223.125V308.125C33.2031 314.002 37.9512 318.75 43.8281 318.75H91.6406C97.5176 318.75 102.266 314.002 102.266 308.125V223.125C102.266 217.248 97.5176 212.5 91.6406 212.5Z" fill="white" fill-opacity="0.85"/>
</g>
</svg>
