<svg width="56" height="56" viewBox="0 0 56 56" fill="none" xmlns="http://www.w3.org/2000/svg">
<g clip-path="url(#clip0_1_69)">
<path d="M13.839 16.184L16.814 26.0983M29.897 39.186L39.816 42.161" stroke="#375DE1" stroke-width="2.75" stroke-linecap="round" stroke-linejoin="round"/>
<path d="M27.2603 28.7397L40.698 15.302" stroke="#375DE1" stroke-width="2.75" stroke-linecap="round" stroke-linejoin="round"/>
<path d="M12.8333 16.3334C14.7663 16.3334 16.3333 14.7664 16.3333 12.8334C16.3333 10.9004 14.7663 9.33337 12.8333 9.33337C10.9003 9.33337 9.33333 10.9004 9.33333 12.8334C9.33333 14.7664 10.9003 16.3334 12.8333 16.3334Z" stroke="#375DE1" stroke-width="2.75" stroke-linecap="round" stroke-linejoin="round"/>
<path d="M43.1667 16.3334C45.0997 16.3334 46.6667 14.7664 46.6667 12.8334C46.6667 10.9004 45.0997 9.33337 43.1667 9.33337C41.2337 9.33337 39.6667 10.9004 39.6667 12.8334C39.6667 14.7664 41.2337 16.3334 43.1667 16.3334Z" stroke="#375DE1" stroke-width="2.75" stroke-linecap="round" stroke-linejoin="round"/>
<path d="M43.1667 46.6667C45.0997 46.6667 46.6667 45.0997 46.6667 43.1667C46.6667 41.2337 45.0997 39.6667 43.1667 39.6667C41.2337 39.6667 39.6667 41.2337 39.6667 43.1667C39.6667 45.0997 41.2337 46.6667 43.1667 46.6667Z" stroke="#375DE1" stroke-width="2.75" stroke-linecap="round" stroke-linejoin="round"/>
<path d="M19.8333 46.6666C25.6323 46.6666 30.3333 41.9656 30.3333 36.1666C30.3333 30.3676 25.6323 25.6666 19.8333 25.6666C14.0343 25.6666 9.33333 30.3676 9.33333 36.1666C9.33333 41.9656 14.0343 46.6666 19.8333 46.6666Z" stroke="#375DE1" stroke-width="2.75" stroke-linecap="round" stroke-linejoin="round"/>
</g>
<defs>
<clipPath id="clip0_1_69">
<rect width="56" height="56" fill="white"/>
</clipPath>
</defs>
</svg>
