<svg width="82" height="82" viewBox="0 0 82 82" fill="none" xmlns="http://www.w3.org/2000/svg">
<path d="M41 0.375C33.9446 0.374464 27.0106 2.21144 20.8808 5.70505C14.7511 9.19867 9.63686 14.2285 6.04171 20.2992C2.44655 26.37 0.494424 33.2724 0.377526 40.3269C0.260628 47.3814 1.98299 54.3447 5.37503 60.5313L2.05472 72.25C1.74498 73.3178 1.72757 74.4493 2.0043 75.5261C2.28104 76.603 2.84178 77.5858 3.62799 78.3721C4.41419 79.1583 5.39703 79.719 6.4739 79.9957C7.55077 80.2725 8.68218 80.2551 9.75003 79.9453L21.4688 76.625C26.8996 79.6016 32.939 81.2971 39.1255 81.582C45.3119 81.8669 51.4816 80.7336 57.163 78.2688C62.8444 75.804 67.8871 72.0729 71.9056 67.3607C75.9241 62.6485 78.8121 57.0799 80.3488 51.0806C81.8855 45.0812 82.0303 38.81 80.772 32.7461C79.5138 26.6823 76.8858 20.9863 73.089 16.0937C69.2922 11.2011 64.4271 7.24127 58.8655 4.51693C53.3039 1.7926 47.193 0.375858 41 0.375ZM61.9766 36.9766L49.4766 49.4766C48.8793 50.0541 48.0809 50.377 47.25 50.377C46.4191 50.377 45.6208 50.0541 45.0235 49.4766L34.75 39.1641L24.4766 49.4766C23.8694 49.9749 23.0986 50.2296 22.3141 50.191C21.5295 50.1525 20.7874 49.8235 20.2319 49.2681C19.6765 48.7127 19.3475 47.9705 19.309 47.186C19.2705 46.4014 19.5251 45.6306 20.0235 45.0234L32.5235 32.5234C33.1159 31.9366 33.9161 31.6074 34.75 31.6074C35.5839 31.6074 36.3841 31.9366 36.9766 32.5234L47.25 42.8359L57.5234 32.5234C58.1306 32.0251 58.9014 31.7705 59.686 31.809C60.4705 31.8475 61.2127 32.1765 61.7681 32.7319C62.3235 33.2873 62.6525 34.0295 62.691 34.814C62.7296 35.5986 62.4749 36.3694 61.9766 36.9766Z" fill="#90A6F2"/>
</svg>
