<svg width="57" height="56" viewBox="0 0 57 56" fill="none" xmlns="http://www.w3.org/2000/svg">
<path d="M28.3043 56C43.9364 56 56.6087 43.464 56.6087 28C56.6087 12.536 43.9364 0 28.3043 0C12.6723 0 0 12.536 0 28C0 43.464 12.6723 56 28.3043 56ZM23.597 33.6951L36.7213 21.9788C37.2973 21.4731 36.5955 21.2265 35.8308 21.6852L19.6329 31.7944L12.6363 29.6341C11.1254 29.1764 11.1145 28.1493 12.9756 27.4109L40.2397 17.011C41.485 16.4517 42.6868 17.3069 42.2115 19.1922L37.5684 40.8369C37.2441 42.3751 36.3047 42.7429 35.003 42.0324L27.9302 36.8631L24.5304 40.1333C24.1355 40.5132 23.8228 40.8333 23.1152 40.8333L23.597 33.6951Z" fill="white"/>
</svg>
