<svg width="80" height="80" viewBox="0 0 80 80" fill="none" xmlns="http://www.w3.org/2000/svg">
<g clip-path="url(#clip0_1_506)">
<path d="M80 40C80 62.1 62.1 80 40 80C17.9 80 0 62.1 0 40C0 17.9 17.9 0 40 0C62.1 0 80 17.9 80 40Z" fill="url(#paint0_linear_1_506)"/>
<path d="M32.6667 58.3333C31.3667 58.3333 31.6 57.8333 31.1334 56.5999L27.3334 44.0666L50.9334 29.3333L53.7 30.0666L51.4 36.3333L32.6667 58.3333Z" fill="#C8DAEA"/>
<path d="M32.6666 58.3333C33.6666 58.3333 34.1 57.8667 34.6666 57.3333C35.5333 56.5 46.6666 45.6667 46.6666 45.6667L39.8333 44L33.5 48L32.6666 58V58.3333Z" fill="#A9C9DD"/>
<path d="M33.3334 48.1334L49.4667 60.0334C51.3 61.0334 52.6334 60.5334 53.1 58.3334L59.6667 27.4001C60.3334 24.7001 58.6334 23.5001 56.8667 24.3001L18.3334 39.1667C15.7 40.2334 15.7334 41.7001 17.8667 42.3334L27.7667 45.4334L50.6667 31.0001C51.7334 30.3334 52.7334 30.7001 51.9334 31.4334L33.3334 48.1334Z" fill="url(#paint1_linear_1_506)"/>
</g>
<defs>
<linearGradient id="paint0_linear_1_506" x1="51.7233" y1="12.6433" x2="31.7233" y2="59.3093" gradientUnits="userSpaceOnUse">
<stop stop-color="#37AEE2"/>
<stop offset="1" stop-color="#1E96C8"/>
</linearGradient>
<linearGradient id="paint1_linear_1_506" x1="42.997" y1="41.2517" x2="51.3304" y2="54.5851" gradientUnits="userSpaceOnUse">
<stop stop-color="#EFF7FC"/>
<stop offset="1" stop-color="white"/>
</linearGradient>
<clipPath id="clip0_1_506">
<rect width="80" height="80" fill="white"/>
</clipPath>
</defs>
</svg>
